<svg width="20" height="20" viewBox="0 0 20 20" fill="none" xmlns="http://www.w3.org/2000/svg">
<g clip-path="url(#clip0_826_6062)">
<path d="M17.5 10C17.5 5.85938 14.1406 2.5 10 2.5C5.85938 2.5 2.5 5.85938 2.5 10C2.5 14.1406 5.85938 17.5 10 17.5C14.1406 17.5 17.5 14.1406 17.5 10ZM20 10C20 15.5234 15.5234 20 10 20C4.47656 20 0 15.5234 0 10C0 4.47656 4.47656 0 10 0C15.5234 0 20 4.47656 20 10ZM10 13.125C11.7266 13.125 13.125 11.7266 13.125 10C13.125 8.27344 11.7266 6.875 10 6.875C8.27344 6.875 6.875 8.27344 6.875 10C6.875 11.7266 8.27344 13.125 10 13.125ZM10 15.625C6.89453 15.625 4.375 13.1055 4.375 10C4.375 6.89453 6.89453 4.375 10 4.375C13.1055 4.375 15.625 6.89453 15.625 10C15.625 13.1055 13.1055 15.625 10 15.625ZM11.25 10C11.25 10.6914 10.6914 11.25 10 11.25C9.30859 11.25 8.75 10.6914 8.75 10C8.75 9.30859 9.30859 8.75 10 8.75C10.6914 8.75 11.25 9.30859 11.25 10Z" fill="#9E9E9E"/>
</g>
<defs>
<clipPath id="clip0_826_6062">
<rect width="20" height="20" fill="white"/>
</clipPath>
</defs>
</svg>
