<svg width="48" height="48" viewBox="0 0 48 48" fill="none" xmlns="http://www.w3.org/2000/svg">
<g clip-path="url(#clip0_252_3086)">
<path d="M17.1429 3V6H30.8571V3C30.8571 1.34344 32.3893 0 34.2857 0C36.1821 0 37.7143 1.34344 37.7143 3V6H42.8571C45.6964 6 48 8.01469 48 10.5V15H0V10.5C0 8.01469 2.3025 6 5.14286 6H10.2857V3C10.2857 1.34344 11.8179 0 13.7143 0C15.6107 0 17.1429 1.34344 17.1429 3ZM0 18H48V43.5C48 45.9844 45.6964 48 42.8571 48H5.14286C2.3025 48 0 45.9844 0 43.5V18ZM6.85714 28.5C6.85714 29.325 7.62429 30 8.57143 30H12C12.9429 30 13.7143 29.325 13.7143 28.5V25.5C13.7143 24.675 12.9429 24 12 24H8.57143C7.62429 24 6.85714 24.675 6.85714 25.5V28.5ZM20.5714 28.5C20.5714 29.325 21.3429 30 22.2857 30H25.7143C26.6571 30 27.4286 29.325 27.4286 28.5V25.5C27.4286 24.675 26.6571 24 25.7143 24H22.2857C21.3429 24 20.5714 24.675 20.5714 25.5V28.5ZM36 24C35.0571 24 34.2857 24.675 34.2857 25.5V28.5C34.2857 29.325 35.0571 30 36 30H39.4286C40.3714 30 41.1429 29.325 41.1429 28.5V25.5C41.1429 24.675 40.3714 24 39.4286 24H36ZM6.85714 40.5C6.85714 41.325 7.62429 42 8.57143 42H12C12.9429 42 13.7143 41.325 13.7143 40.5V37.5C13.7143 36.675 12.9429 36 12 36H8.57143C7.62429 36 6.85714 36.675 6.85714 37.5V40.5ZM22.2857 36C21.3429 36 20.5714 36.675 20.5714 37.5V40.5C20.5714 41.325 21.3429 42 22.2857 42H25.7143C26.6571 42 27.4286 41.325 27.4286 40.5V37.5C27.4286 36.675 26.6571 36 25.7143 36H22.2857ZM34.2857 40.5C34.2857 41.325 35.0571 42 36 42H39.4286C40.3714 42 41.1429 41.325 41.1429 40.5V37.5C41.1429 36.675 40.3714 36 39.4286 36H36C35.0571 36 34.2857 36.675 34.2857 37.5V40.5Z" fill="#3BACB6"/>
</g>
<defs>
<clipPath id="clip0_252_3086">
<rect width="48" height="48" fill="white"/>
</clipPath>
</defs>
</svg>
