<svg width="25" height="29" viewBox="0 0 25 29" fill="none" xmlns="http://www.w3.org/2000/svg">
<path d="M17.7511 8.67188L17.2266 9.0875C15.971 8.03203 14.3527 7.25 12.5781 7.25C8.58259 7.25 5.35714 10.575 5.35714 14.4852C5.35714 14.8461 5.37946 15.2016 5.43527 15.5461C5.32366 12.4836 7.76786 10.2195 10.6027 10.2195C11.9531 10.2195 13.1808 10.7336 14.096 11.5703L12.6897 12.6859C12.2266 12.6367 11.7522 12.7844 11.4007 13.1289C10.7813 13.7305 10.7813 14.7094 11.4007 15.3164C12.0201 15.918 13.0134 15.918 13.6328 15.3164C13.9844 14.9719 14.135 14.5016 14.0848 14.0531L18.2813 9.19688C18.6328 8.84141 18.0971 8.32734 17.7511 8.67188V8.67188ZM13.0748 14.7695C12.7623 15.0703 12.26 15.0703 11.9475 14.7695C11.635 14.4633 11.635 13.9711 11.9475 13.6648C12.26 13.3586 12.7623 13.3586 13.0748 13.6648C13.3873 13.9711 13.3873 14.4688 13.0748 14.7695ZM12.5 2C5.60826 2 0 7.49609 0 14.25C0 21.0039 5.60826 26.5 12.5 26.5C19.3917 26.5 25 21.0039 25 14.25C25 7.49609 19.3917 2 12.5 2ZM12.5 23C7.57813 23 3.57143 19.0734 3.57143 14.25C3.57143 9.42656 7.57813 5.5 12.5 5.5C17.4219 5.5 21.4286 9.42656 21.4286 14.25C21.4286 19.0734 17.4219 23 12.5 23Z" fill="white"/>
</svg>
