<svg width="40" height="35" viewBox="0 0 40 35" fill="none" xmlns="http://www.w3.org/2000/svg">
<g clip-path="url(#clip0_259_3277)">
<path d="M5.48421 24.0625C3.64393 24.0625 2.15088 25.5322 2.15088 27.3438C2.15088 29.1553 3.64393 30.625 5.48421 30.625C7.32449 30.625 8.81755 29.1553 8.81755 27.3438C8.81755 25.5322 7.32449 24.0625 5.48421 24.0625ZM34.3731 24.0625C32.5328 24.0625 31.0398 25.5322 31.0398 27.3438C31.0398 29.1553 32.5328 30.625 34.3731 30.625C36.2134 30.625 37.7064 29.1553 37.7064 27.3438C37.7064 25.5322 36.2134 24.0625 34.3731 24.0625ZM26.1092 24.8213C26.4304 23.8301 26.2221 22.7104 25.4321 21.9249C24.6335 21.1388 23.4967 20.9419 22.4898 21.2499C22.0037 20.327 21.0571 19.6776 19.9287 19.6776C18.8002 19.6776 17.8537 20.327 17.3675 21.2499C16.3592 20.9316 15.2203 21.1367 14.4287 21.9297C13.63 22.7158 13.43 23.8349 13.7429 24.8261C12.8054 25.3046 12.1457 26.2363 12.1457 27.3472C12.1457 28.458 12.8054 29.3897 13.7429 29.8683C13.4217 30.8595 13.63 31.9792 14.4287 32.7646C15.0016 33.3201 15.7481 33.6021 16.4946 33.6021C16.7898 33.6021 17.0849 33.5251 17.371 33.4312C17.8523 34.3506 18.8037 35 19.9287 35C21.0537 35 22.0037 34.3506 22.4898 33.4277C22.7762 33.5132 23.0714 33.5986 23.3662 33.5986C24.1127 33.5986 24.8592 33.3167 25.4321 32.7612C26.2307 31.9751 26.4307 30.8561 26.1092 29.8648C27.0467 29.3877 27.7064 28.4512 27.7064 27.3438C27.7064 26.2363 27.0467 25.2998 26.1092 24.8213ZM37.7064 15.3125C37.7064 11.6895 34.7203 8.75 31.0398 8.75C30.9964 8.75 30.9616 8.76709 30.9269 8.76709C31.005 8.4082 31.0398 8.03906 31.0398 7.65625C31.0398 4.63135 28.5537 2.1875 25.4842 2.1875C23.7745 2.1875 22.2724 2.95654 21.2481 4.15283C19.9564 1.69189 17.3731 0 14.3731 0C10.0745 0 6.59532 3.42617 6.59532 7.65625C6.59532 8.15186 6.64741 8.63037 6.74289 9.10889C4.07796 9.9668 2.15088 12.4072 2.15088 15.3125C2.15088 18.9355 5.13699 21.875 8.81755 21.875H11.83C12.0814 21.3281 12.4148 20.8223 12.8592 20.3848C13.8037 19.4688 15.0537 18.9424 16.387 18.9287C17.3245 18.0332 18.5953 17.5 19.9287 17.5C21.262 17.5 22.5328 18.0298 23.4703 18.9273C24.8071 18.9444 26.0571 19.4657 26.9946 20.3882C27.4425 20.8223 27.7828 21.3281 28.0259 21.875H31.0398C34.7203 21.875 37.7064 18.9355 37.7064 15.3125Z" fill="#FFD12E"/>
</g>
<defs>
<clipPath id="clip0_259_3277">
<rect width="40" height="35" fill="white"/>
</clipPath>
</defs>
</svg>
