<svg width="25" height="25" viewBox="0 0 25 25" fill="none" xmlns="http://www.w3.org/2000/svg">
<path d="M15.2952 11.9044L13.1324 16.7628C12.8716 17.3487 12.1164 17.3302 11.8772 16.7323L9.40545 10.5616L8.10119 14.065L3.84338 14.0626L11.4996 22.9591C12.0491 23.5973 12.9476 23.5973 13.4975 22.9591L21.1537 14.0626L16.2883 14.0628L15.2952 11.9044ZM21.4931 3.06943C19.1337 0.775484 15.5252 1.18955 13.3551 3.70712L12.5001 4.6998L11.645 3.70712C9.47489 1.18955 5.86812 0.775484 3.50744 3.06943C1.01439 5.49326 0.730969 9.64853 2.61205 12.5001H7.16934L8.7288 8.28867C8.96786 7.65976 9.75571 7.64804 10.0109 8.27036L12.5374 14.5887L14.6672 9.80356C14.9225 9.22983 15.6559 9.22983 15.9115 9.80356L17.1125 12.5013H22.3859C24.2709 9.64853 23.9844 5.49326 21.4931 3.06943Z" fill="white"/>
</svg>
