<svg width="24" height="24" viewBox="0 0 24 24" fill="none" xmlns="http://www.w3.org/2000/svg">
<path d="M2.23125 14.082L10.7016 21.9898C11.0531 22.3179 11.5172 22.5007 12 22.5007C12.4828 22.5007 12.9469 22.3179 13.2984 21.9898L21.7687 14.082C23.1937 12.7554 24 10.8945 24 8.94918V8.6773C24 5.40074 21.6328 2.60699 18.4031 2.06793C16.2656 1.71168 14.0906 2.41011 12.5625 3.93824L12 4.50074L11.4375 3.93824C9.90938 2.41011 7.73438 1.71168 5.59688 2.06793C2.36719 2.60699 0 5.40074 0 8.6773V8.94918C0 10.8945 0.80625 12.7554 2.23125 14.082Z" fill="#FF5652"/>
</svg>
