<svg width="20" height="18" viewBox="0 0 20 18" fill="none" xmlns="http://www.w3.org/2000/svg">
<path d="M19.1427 9C19.1427 9.69102 18.503 10.2504 17.7141 10.2504H11.2856V15.8754C11.2856 16.5664 10.6458 17.125 9.857 17.125C9.06816 17.125 8.42843 16.5664 8.42843 15.8754V10.2504H1.99986C1.21102 10.2504 0.571289 9.69102 0.571289 9C0.571289 8.30898 1.21102 7.75039 1.99986 7.75039H8.42843V2.12539C8.42843 1.43438 9.06816 0.875 9.857 0.875C10.6458 0.875 11.2856 1.43438 11.2856 2.12539V7.75039H17.7141C18.5043 7.75 19.1427 8.30859 19.1427 9Z" fill="black"/>
</svg>
