<svg width="37" height="41" viewBox="0 0 37 41" fill="none" xmlns="http://www.w3.org/2000/svg">
<g clip-path="url(#clip0_259_3310)">
<path d="M0.00979943 39.1016C-0.0831135 39.8438 0.531103 40.4977 1.32627 40.4977L3.97408 40.5027C4.64512 40.5027 5.23027 40.047 5.31286 39.4222C5.37481 39.0414 5.46722 38.5496 5.60142 38.0027H31.3693C31.5035 38.5398 31.6091 39.0425 31.6607 39.423C31.7537 39.9777 32.3082 40.5121 32.9797 40.5027L35.6605 40.4978C36.4555 40.4978 37.0745 39.8436 36.9811 39.1017C36.5992 36.1431 34.8545 29.0939 27.1448 22.8752C25.6994 23.8416 24.0906 24.7791 22.3149 25.6478C22.8311 26.0091 23.2697 26.3826 23.7239 26.7533H13.1895C14.9445 25.3377 17.0736 23.9697 19.6851 22.7392C33.8987 16.0595 36.5085 5.64546 36.9876 1.90328C37.0805 1.16109 36.4675 0.506401 35.6727 0.506401L33.0026 0.500151C32.3316 0.500151 31.777 0.955776 31.6845 1.58062C31.6226 1.96148 31.5301 2.45328 31.4063 3.00015H5.59454C5.47066 2.4532 5.37486 1.9696 5.31292 1.57898C5.22042 0.954214 4.66459 0.490386 3.99396 0.500151L1.32963 0.510526C0.534712 0.510526 -0.0818169 1.16318 0.011509 1.90506C0.434779 5.25428 2.59573 13.9207 13.2175 20.5066C2.60564 27.086 0.433127 35.7501 0.00979943 39.1016ZM18.4917 17.6641C16.4187 16.586 14.6678 15.4454 13.1895 14.2501H23.8022C22.3321 15.4454 20.5647 16.6016 18.4917 17.6641ZM29.3274 8.00007C28.8422 8.81023 28.2637 9.65007 27.593 10.4298H9.34079C8.65943 9.58054 8.07718 8.73992 7.60229 7.92976L29.3274 8.00007ZM7.68075 32.9298C8.16596 32.1196 8.73294 31.279 9.40439 30.4298H27.5245C28.2162 31.279 28.803 32.1196 29.2778 32.9298H7.68075Z" fill="#008000"/>
</g>
<defs>
<clipPath id="clip0_259_3310">
<rect width="37" height="40" fill="white" transform="translate(0 0.5)"/>
</clipPath>
</defs>
</svg>
