<svg width="40" height="41" viewBox="0 0 40 41" fill="none" xmlns="http://www.w3.org/2000/svg">
<g clip-path="url(#clip0_259_3261)">
<path d="M28.8839 4.50391C27.0357 6.00781 25.3571 7.58984 23.875 9.17969C21.4375 6.25156 18.4107 3.27344 15 0.5C6.22768 7.61875 0 16.9062 0 22.5C0 32.4453 8.94643 40.5 20 40.5C31.0536 40.5 40 32.4453 40 22.5C40 18.3438 35.3571 9.75781 28.8839 4.50391ZM27.1518 31.1172C25.2143 32.2969 22.8393 33 20.2589 33C13.8188 33 8.57143 29.2711 8.57143 23.2188C8.57143 20.2008 10.7357 17.5438 15.0661 13C15.6911 13.625 23.8946 22.7969 23.8946 22.7969L29.1295 17.5719C29.4978 18.0992 29.8319 18.6281 30.133 19.1266C32.5804 23.2031 31.5536 28.4219 27.1518 31.1172Z" fill="#FF5652"/>
</g>
<defs>
<clipPath id="clip0_259_3261">
<rect width="40" height="40" fill="white" transform="translate(0 0.5)"/>
</clipPath>
</defs>
</svg>
