<svg width="26" height="27" viewBox="0 0 26 27" fill="none" xmlns="http://www.w3.org/2000/svg">
<path d="M12.377 8.26337C12.55 8.8786 12.5555 9.52313 12.4049 10.1433C12.2486 10.7243 11.9305 11.3493 11.4841 11.8474C10.675 12.653 9.66492 13.1657 8.44282 13.4099V24.0495C8.44282 24.5671 8.25866 25.0651 7.84014 25.4313C7.42161 25.7975 6.85241 26.0026 6.21067 26.0026C5.66938 26.0026 5.1013 25.7975 4.68221 25.4313C4.26369 25.0651 3.97853 24.5671 3.97853 24.0495V13.4099C2.85465 13.2145 1.79438 12.6677 1.0321 11.862C0.579535 11.364 0.263631 10.7829 0.108832 10.1579C-0.045967 9.5329 -0.0355039 8.88837 0.139412 8.26825L1.82507 1.61054C1.8725 1.42245 1.99806 1.25639 2.17719 1.14423C2.35576 1.03202 2.57619 0.981645 2.79494 1.00275C3.01425 1.02363 3.21737 1.11508 3.36469 1.25941C3.51201 1.4037 3.59237 1.59052 3.59125 1.78388V8.81513H4.56056L5.51425 1.58417C5.53657 1.42426 5.62474 1.27709 5.76424 1.1703C5.89817 1.06356 6.07674 1.00458 6.21067 1.00458C6.44505 1.00458 6.62362 1.06356 6.75755 1.1703C6.89706 1.27709 6.93612 1.42426 7.00866 1.58417L7.96291 8.81513H8.88925V1.78388C8.88925 1.59198 9.01759 1.40634 9.11246 1.26225C9.30777 1.11815 9.50867 1.02577 9.7263 1.00275C9.94393 0.981816 10.1169 1.03285 10.3457 1.14599C10.5243 1.25912 10.6471 1.42631 10.6973 1.61542L12.377 8.26337ZM25.0109 24.0495C25.0109 24.5671 24.7765 25.0651 24.358 25.4313C23.9395 25.7975 23.3703 26.0026 22.7788 26.0026C22.1872 26.0026 21.618 25.7975 21.1995 25.4313C20.781 25.0651 20.5466 24.5671 20.5466 24.0495V18.1901H19.6091C19.1404 18.1901 18.6716 18.1071 18.2363 17.9509C17.8067 17.7897 17.4104 17.5602 17.0756 17.2673C16.7464 16.9743 16.4841 16.6276 16.2553 16.2468C16.127 15.8659 16.0377 15.4558 16.0377 15.0456L16.0321 9.48895C16.0823 7.6872 16.7017 5.9245 17.8569 4.43427C19.012 2.94159 20.6471 1.78632 22.5611 1.11684C22.7843 1.02221 23.1247 0.986991 23.4149 1.0143C23.7051 1.0416 23.9841 1.13056 24.2241 1.27343C24.464 1.4163 24.6649 1.60858 24.7988 1.83417C24.9384 2.05927 24.9607 2.31024 25.0109 2.56513V24.0495Z" fill="white"/>
</svg>
