<svg width="33" height="32" viewBox="0 0 33 32" fill="none" xmlns="http://www.w3.org/2000/svg">
<path d="M11.9286 3.42857C11.9286 1.535 13.4643 0 15.3571 0H17.6429C19.5357 0 21.0714 1.535 21.0714 3.42857V28.5714C21.0714 30.4643 19.5357 32 17.6429 32H15.3571C13.4643 32 11.9286 30.4643 11.9286 28.5714V3.42857ZM0.5 17.1429C0.5 15.25 2.035 13.7143 3.92857 13.7143H6.21429C8.10714 13.7143 9.64286 15.25 9.64286 17.1429V28.5714C9.64286 30.4643 8.10714 32 6.21429 32H3.92857C2.035 32 0.5 30.4643 0.5 28.5714V17.1429ZM29.0714 4.57143C30.9643 4.57143 32.5 6.10714 32.5 8V28.5714C32.5 30.4643 30.9643 32 29.0714 32H26.7857C24.8929 32 23.3571 30.4643 23.3571 28.5714V8C23.3571 6.10714 24.8929 4.57143 26.7857 4.57143H29.0714Z" fill="#3BACB6"/>
</svg>
