<svg width="72" height="72" viewBox="0 0 72 72" fill="none" xmlns="http://www.w3.org/2000/svg">
<rect width="72" height="72" rx="36" fill="#F4FDFE"/>
<path d="M31.4286 23.4286C31.4286 21.535 32.9643 20 34.8571 20H37.1429C39.0357 20 40.5714 21.535 40.5714 23.4286V48.5714C40.5714 50.4643 39.0357 52 37.1429 52H34.8571C32.9643 52 31.4286 50.4643 31.4286 48.5714V23.4286ZM20 37.1429C20 35.25 21.535 33.7143 23.4286 33.7143H25.7143C27.6071 33.7143 29.1429 35.25 29.1429 37.1429V48.5714C29.1429 50.4643 27.6071 52 25.7143 52H23.4286C21.535 52 20 50.4643 20 48.5714V37.1429ZM48.5714 24.5714C50.4643 24.5714 52 26.1071 52 28V48.5714C52 50.4643 50.4643 52 48.5714 52H46.2857C44.3929 52 42.8571 50.4643 42.8571 48.5714V28C42.8571 26.1071 44.3929 24.5714 46.2857 24.5714H48.5714Z" fill="#19585D"/>
</svg>
