<svg width="36" height="32" viewBox="0 0 36 32" fill="none" xmlns="http://www.w3.org/2000/svg">
<path d="M12.5494 16C16.5262 16 19.7494 12.4181 19.7494 8C19.7494 3.58187 16.5262 0 12.5494 0C8.62313 0 5.4 3.58187 5.4 8C5.4 12.4181 8.62313 16 12.5494 16ZM15.4519 19H9.74813C4.36556 19 0 23.8563 0 29.8375C0 31.0312 0.873 32 1.94962 32H18.0596C17.9895 31.6543 17.9792 31.2931 18.0437 30.935L18.8469 26.4719C18.9562 25.8642 19.2225 25.3119 19.6164 24.8744L22.1882 22.0169C20.4356 20.15 18.0675 19 15.4519 19ZM20.8912 26.2875C20.7498 26.4445 20.6535 26.6447 20.6143 26.8627L19.811 31.3258C19.7403 31.7189 20.0525 32.0658 20.4067 31.9877L24.4241 31.0946C24.6199 31.0509 24.7999 30.9442 24.9413 30.7869L31.9894 22.9557L27.9389 18.4551L20.8912 26.2875ZM35.4094 15.9812L34.2225 14.6619C33.4316 13.7831 32.1497 13.7831 31.3588 14.6619L29.214 17.0456L33.2646 21.5462L35.4094 19.1631C36.1969 18.2812 36.1969 16.8563 35.4094 15.9812Z" fill="#19585E"/>
</svg>
