<svg width="32" height="32" viewBox="0 0 32 32" fill="none" xmlns="http://www.w3.org/2000/svg">
<path d="M11.4286 3.42857C11.4286 1.535 12.9643 0 14.8571 0H17.1429C19.0357 0 20.5714 1.535 20.5714 3.42857V28.5714C20.5714 30.4643 19.0357 32 17.1429 32H14.8571C12.9643 32 11.4286 30.4643 11.4286 28.5714V3.42857ZM0 17.1429C0 15.25 1.535 13.7143 3.42857 13.7143H5.71429C7.60714 13.7143 9.14286 15.25 9.14286 17.1429V28.5714C9.14286 30.4643 7.60714 32 5.71429 32H3.42857C1.535 32 0 30.4643 0 28.5714V17.1429ZM28.5714 4.57143C30.4643 4.57143 32 6.10714 32 8V28.5714C32 30.4643 30.4643 32 28.5714 32H26.2857C24.3929 32 22.8571 30.4643 22.8571 28.5714V8C22.8571 6.10714 24.3929 4.57143 26.2857 4.57143H28.5714Z" fill="#19585D"/>
</svg>
