<svg width="76" height="72" viewBox="0 0 76 72" fill="none" xmlns="http://www.w3.org/2000/svg">
<rect width="76" height="72" rx="36" fill="#F4FDFE"/>
<path d="M32.5494 36C36.5262 36 39.7494 32.4181 39.7494 28C39.7494 23.5819 36.5262 20 32.5494 20C28.6231 20 25.4 23.5819 25.4 28C25.4 32.4181 28.6231 36 32.5494 36ZM35.4519 39H29.7481C24.3656 39 20 43.8563 20 49.8375C20 51.0312 20.873 52 21.9496 52H38.0596C37.9895 51.6543 37.9792 51.2931 38.0437 50.935L38.8469 46.4719C38.9562 45.8642 39.2225 45.3119 39.6164 44.8744L42.1882 42.0169C40.4356 40.15 38.0675 39 35.4519 39ZM40.8912 46.2875C40.7498 46.4445 40.6535 46.6447 40.6143 46.8627L39.811 51.3258C39.7403 51.7189 40.0525 52.0658 40.4067 51.9877L44.4241 51.0946C44.6199 51.0509 44.7999 50.9442 44.9413 50.7869L51.9894 42.9557L47.9389 38.4551L40.8912 46.2875ZM55.4094 35.9812L54.2225 34.6619C53.4316 33.7831 52.1497 33.7831 51.3588 34.6619L49.214 37.0456L53.2646 41.5462L55.4094 39.1631C56.1969 38.2812 56.1969 36.8563 55.4094 35.9812Z" fill="#19585E"/>
</svg>
