<svg width="25" height="26" viewBox="0 0 25 26" fill="none" xmlns="http://www.w3.org/2000/svg">
<path d="M8.92857 4.34375C8.92857 3.04932 10.1283 2 11.6071 2H13.3929C14.8717 2 16.0714 3.04932 16.0714 4.34375V21.5312C16.0714 22.8252 14.8717 23.875 13.3929 23.875H11.6071C10.1283 23.875 8.92857 22.8252 8.92857 21.5312V4.34375ZM0 13.7188C0 12.4248 1.19922 11.375 2.67857 11.375H4.46429C5.94308 11.375 7.14286 12.4248 7.14286 13.7188V21.5312C7.14286 22.8252 5.94308 23.875 4.46429 23.875H2.67857C1.19922 23.875 0 22.8252 0 21.5312V13.7188ZM22.3214 5.125C23.8002 5.125 25 6.1748 25 7.46875V21.5312C25 22.8252 23.8002 23.875 22.3214 23.875H20.5357C19.0569 23.875 17.8571 22.8252 17.8571 21.5312V7.46875C17.8571 6.1748 19.0569 5.125 20.5357 5.125H22.3214Z" fill="#bfbfbf"/>
</svg>
